<svg width="26" height="26" viewBox="0 0 26 26" fill="none" xmlns="http://www.w3.org/2000/svg">
<path d="M8.92567 21.0545C6.35062 21.0545 4.25586 19.0578 4.25586 16.6026C4.25586 14.1473 6.35062 12.1523 8.92567 12.1523C11.5007 12.1523 13.5958 14.1501 13.5958 16.6026C13.5958 19.055 11.5007 21.0545 8.92567 21.0545ZM8.92567 12.8565C6.73851 12.8565 4.95856 14.5377 4.95856 16.604C4.95856 18.6703 6.73851 20.3518 8.92567 20.3518C11.1128 20.3518 12.8931 18.6706 12.8931 16.6026C12.8931 14.5345 11.1135 12.8565 8.92567 12.8565ZM19.6183 21.0545C17.0433 21.0545 14.9482 19.0578 14.9482 16.604C14.9482 14.1501 17.0433 12.1537 19.6183 12.1537C22.1934 12.1537 24.2885 14.1501 24.2885 16.6026C24.2885 19.055 22.1934 21.0545 19.6183 21.0545ZM19.6183 12.8565C17.4305 12.8565 15.6509 14.5377 15.6509 16.604C15.6509 18.6703 17.4305 20.3518 19.6183 20.3518C21.8062 20.3518 23.5858 18.6706 23.5858 16.6026C23.5858 14.5345 21.8059 12.8565 19.6183 12.8565Z" fill="white"/>
<path d="M16.1384 14.5278C16.0869 14.5279 16.036 14.5166 15.9894 14.4948C15.4505 14.2469 14.8643 14.1185 14.2711 14.1185C13.6779 14.1185 13.0917 14.2469 12.5528 14.4948C12.5109 14.5153 12.4654 14.5273 12.4188 14.53C12.3722 14.5327 12.3256 14.5261 12.2816 14.5106C12.2376 14.4951 12.1971 14.471 12.1626 14.4396C12.128 14.4083 12.1 14.3705 12.0802 14.3282C12.0604 14.286 12.0493 14.2402 12.0473 14.1936C12.0454 14.147 12.0528 14.1005 12.0691 14.0567C12.0853 14.013 12.1101 13.973 12.142 13.9389C12.1739 13.9049 12.2123 13.8776 12.2549 13.8585C12.8872 13.5671 13.5751 13.4162 14.2713 13.4162C14.9675 13.4162 15.6554 13.5671 16.2877 13.8585C16.36 13.8925 16.4185 13.9501 16.4537 14.0218C16.4888 14.0935 16.4985 14.175 16.4811 14.253C16.4638 14.3309 16.4203 14.4006 16.358 14.4506C16.2957 14.5006 16.2182 14.5278 16.1384 14.5278ZM4.60702 15.9455C4.55407 15.9455 4.50183 15.9335 4.45418 15.9104L3.66996 15.5302C3.40962 15.4033 3.20437 15.186 3.09252 14.9189C2.98067 14.6517 2.96986 14.353 3.06212 14.0785L5.81004 4.89343C5.90662 4.60076 6.10421 4.35202 6.36745 4.19175C6.63068 4.03147 6.94237 3.97012 7.24671 4.01869C7.55105 4.06726 7.82817 4.22257 8.02845 4.45681C8.22873 4.69106 8.33909 4.98894 8.33977 5.29713V5.66851C8.33977 5.7617 8.30276 5.85106 8.23686 5.91696C8.17097 5.98285 8.08161 6.01986 7.98842 6.01986C7.89524 6.01986 7.80587 5.98285 7.73998 5.91696C7.67409 5.85106 7.63707 5.7617 7.63707 5.66851V5.29713C7.63785 5.15552 7.58809 5.01828 7.49672 4.91008C7.40536 4.80188 7.27839 4.72983 7.13865 4.70688C6.99891 4.68392 6.85556 4.71158 6.73439 4.78487C6.61321 4.85816 6.52216 4.97228 6.47761 5.1067L3.7325 14.2914C3.69189 14.4051 3.6945 14.5297 3.73986 14.6416C3.78521 14.7535 3.87013 14.8448 3.97845 14.8982L4.76266 15.278C4.8343 15.3127 4.89203 15.3707 4.92641 15.4424C4.96078 15.5142 4.96977 15.5956 4.95189 15.6731C4.93401 15.7507 4.89032 15.8199 4.82799 15.8694C4.76566 15.9188 4.68837 15.9457 4.60877 15.9455H4.60702ZM23.9391 15.9455C23.8595 15.9457 23.7822 15.9188 23.7199 15.8694C23.6575 15.8199 23.6138 15.7507 23.596 15.6731C23.5781 15.5956 23.5871 15.5142 23.6214 15.4424C23.6558 15.3707 23.7135 15.3127 23.7852 15.278L24.5694 14.8982C24.676 14.8461 24.76 14.757 24.8059 14.6476C24.8517 14.5382 24.8562 14.4158 24.8185 14.3033L22.0629 5.09476C22.0151 4.96332 21.9225 4.85291 21.8014 4.78291C21.6804 4.7129 21.5385 4.68777 21.4007 4.71191C21.263 4.73606 21.1381 4.80795 21.0481 4.91496C20.958 5.02197 20.9086 5.15728 20.9083 5.29713V5.66851C20.9083 5.7617 20.8713 5.85106 20.8054 5.91696C20.7395 5.98285 20.6501 6.01986 20.557 6.01986C20.4638 6.01986 20.3744 5.98285 20.3085 5.91696C20.2426 5.85106 20.2056 5.7617 20.2056 5.66851V5.29713C20.2057 4.98959 20.315 4.69208 20.5141 4.45765C20.7132 4.22323 20.9891 4.06714 21.2925 4.01721C21.596 3.96729 21.9073 4.02678 22.171 4.18508C22.4347 4.34337 22.6336 4.59018 22.7322 4.88149L25.4878 14.0901C25.5774 14.3635 25.5648 14.6602 25.4523 14.9251C25.3398 15.19 25.1351 15.4051 24.8761 15.5306L24.0919 15.9108C24.0442 15.9337 23.992 15.9456 23.9391 15.9455Z" fill="white"/>
</svg>
