<svg width="27" height="27" viewBox="0 0 27 27" fill="none" xmlns="http://www.w3.org/2000/svg">
<g clip-path="url(#clip0_2606_3465)">
<path d="M15.3984 15.3984C13.8968 16.9478 13.7876 18.8794 13.6579 23.1111C17.603 23.1111 20.3263 23.0975 21.7324 21.7324C23.0975 20.3263 23.1111 17.4733 23.1111 13.6579C18.8794 13.7944 16.9478 13.8968 15.3984 15.3984ZM4 13.6579C4 17.4733 4.01365 20.3263 5.37873 21.7324C6.78476 23.0975 9.5081 23.1111 13.4532 23.1111C13.3167 18.8794 13.2143 16.9478 11.7127 15.3984C10.1633 13.8968 8.23175 13.7876 4 13.6579ZM13.4532 4C9.51492 4 6.78476 4.01365 5.37873 5.37873C4.01365 6.78476 4 9.63778 4 13.4532C8.23175 13.3167 10.1633 13.2143 11.7127 11.7127C13.2143 10.1633 13.3235 8.23175 13.4532 4ZM15.3984 11.7127C13.8968 10.1633 13.7876 8.23175 13.6579 4C17.603 4 20.3263 4.01365 21.7324 5.37873C23.0975 6.78476 23.1111 9.63778 23.1111 13.4532C18.8794 13.3167 16.9478 13.2143 15.3984 11.7127Z" fill="white"/>
</g>
<defs>
<clipPath id="clip0_2606_3465">
<rect width="19.1111" height="19.1111" fill="white" transform="translate(4 4)"/>
</clipPath>
</defs>
</svg>
