<svg width="50" height="50" viewBox="0 0 50 50" fill="none" xmlns="http://www.w3.org/2000/svg">
<path d="M33.6807 0.955153V6.50484C33.6807 8.30611 35.1409 9.76636 36.9422 9.76636H42.4919" stroke="#0C75AF" stroke-width="1.24324" stroke-miterlimit="10" stroke-linecap="round" stroke-linejoin="round"/>
<path d="M18.7388 24.9533L18.0646 23.4275C17.8644 22.9743 17.5368 22.5891 17.1217 22.3187C16.7065 22.0483 16.2218 21.9043 15.7263 21.9043H6.63739C5.22558 21.9043 4.08105 23.0488 4.08105 24.4606V46.7113C4.08105 48.1231 5.22558 49.2676 6.63739 49.2676H43.3619C44.7737 49.2676 45.9182 48.1231 45.9182 46.7113V29.0328C45.9182 27.621 44.7737 26.4765 43.3619 26.4765H21.0771C20.5817 26.4765 20.0969 26.3326 19.6818 26.0621C19.2666 25.7917 18.939 25.4065 18.7388 24.9533Z" stroke="#0C75AF" stroke-width="1.24324" stroke-miterlimit="10" stroke-linecap="round" stroke-linejoin="round"/>
<path d="M42.7145 23.0513V10.7898C42.7146 10.4653 42.6506 10.144 42.5265 9.84426C42.4023 9.5445 42.2203 9.27213 41.9908 9.04272L34.4044 1.45622C33.941 0.992893 33.3126 0.732598 32.6573 0.732587H10.5467C8.74541 0.732587 7.28516 2.19284 7.28516 3.9941V18.4793" stroke="#0C75AF" stroke-width="1.24324" stroke-miterlimit="10" stroke-linecap="round" stroke-linejoin="round"/>
<path d="M7.28495 15.5777H6.63739C5.22558 15.5777 4.08105 16.7222 4.08105 18.1341V24.4602" stroke="#0C75AF" stroke-width="1.24324" stroke-miterlimit="10" stroke-linecap="round" stroke-linejoin="round"/>
<path d="M45.9187 29.0327V18.1341C45.9187 16.7223 44.7742 15.5779 43.3624 15.5779H42.7148" stroke="#0C75AF" stroke-width="1.24324" stroke-miterlimit="10" stroke-linecap="round" stroke-linejoin="round"/>
</svg>
