<svg width="16" height="18" viewBox="0 0 16 18" fill="none" xmlns="http://www.w3.org/2000/svg">
<path d="M12.438 6.56162C13.8549 7.41973 14.5633 7.84879 14.8062 8.39812C15.0184 8.87788 15.0184 9.42095 14.8062 9.90071C14.5633 10.45 13.8549 10.8791 12.438 11.7372L5.78341 15.7677C4.21089 16.7201 3.42463 17.1963 2.77579 17.1458C2.21021 17.1017 1.69177 16.8233 1.35345 16.3818C0.965332 15.8754 0.965332 14.9769 0.965332 13.1799V5.11893C0.965332 3.32191 0.965332 2.4234 1.35345 1.91699C1.69177 1.47557 2.21021 1.19712 2.77579 1.15306C3.42463 1.10251 4.21089 1.57872 5.78341 2.53114L12.438 6.56162Z" stroke="black" stroke-linejoin="round"/>
</svg>
