<svg width="27" height="27" viewBox="0 0 27 27" fill="none" xmlns="http://www.w3.org/2000/svg">
<path d="M26.4074 5.97695C26.586 5.34219 26.4074 4.875 25.5483 4.875H22.7054C21.9814 4.875 21.6484 5.27617 21.4698 5.72305C21.4698 5.72305 20.0218 9.43516 17.9753 11.8422C17.314 12.5379 17.01 12.7613 16.648 12.7613C16.4694 12.7613 16.1943 12.5379 16.1943 11.9031V5.97695C16.1943 5.21523 15.9915 4.875 15.393 4.875H10.9236C10.4699 4.875 10.1996 5.23047 10.1996 5.56055C10.1996 6.28164 11.2228 6.44922 11.329 8.48047V12.8883C11.329 13.8531 11.1649 14.0309 10.8029 14.0309C9.83758 14.0309 7.49183 10.3035 6.10176 6.03789C5.82182 5.21016 5.5467 4.875 4.81787 4.875H1.97498C1.16411 4.875 1 5.27617 1 5.72305C1 6.51523 1.96533 10.4508 5.4936 15.6508C7.84418 19.2004 11.1553 21.125 14.1671 21.125C15.9771 21.125 16.1991 20.6984 16.1991 19.9621C16.1991 16.5699 16.035 16.25 16.9424 16.25C17.3623 16.25 18.0863 16.4734 19.7756 18.1848C21.7063 20.216 22.0249 21.125 23.106 21.125H25.9489C26.7598 21.125 27.1701 20.6984 26.9336 19.8555C26.393 18.0832 22.7392 14.4371 22.5751 14.1934C22.1552 13.6246 22.2758 13.3707 22.5751 12.8629C22.5799 12.8578 26.0503 7.71875 26.4074 5.97695V5.97695Z" fill="white"/>
</svg>
