<svg width="27" height="27" viewBox="0 0 27 27" fill="none" xmlns="http://www.w3.org/2000/svg">
<g clip-path="url(#clip0_2606_3466)">
<path d="M26.658 6.52852C26.3475 5.35834 25.4325 4.43674 24.2709 4.12398C22.1653 3.55566 13.7222 3.55566 13.7222 3.55566C13.7222 3.55566 5.27907 3.55566 3.17344 4.12398C2.01179 4.43679 1.09688 5.35834 0.786359 6.52852C0.222168 8.64954 0.222168 13.0749 0.222168 13.0749C0.222168 13.0749 0.222168 17.5002 0.786359 19.6212C1.09688 20.7914 2.01179 21.6746 3.17344 21.9873C5.27907 22.5557 13.7222 22.5557 13.7222 22.5557C13.7222 22.5557 22.1653 22.5557 24.2709 21.9873C25.4325 21.6746 26.3475 20.7914 26.658 19.6212C27.2222 17.5002 27.2222 13.0749 27.2222 13.0749C27.2222 13.0749 27.2222 8.64954 26.658 6.52852ZM10.9608 17.0927V9.057L18.0176 13.075L10.9608 17.0927Z" fill="white"/>
</g>
<defs>
<clipPath id="clip0_2606_3466">
<rect width="27" height="27" fill="white"/>
</clipPath>
</defs>
</svg>
