<svg width="1350" height="231" viewBox="0 0 1350 231" fill="none" xmlns="http://www.w3.org/2000/svg">
<g clip-path="url(#clip0_2648_2626)">
<path d="M-121 -2.73594C-121 -2.73594 -86.9277 -23.2269 -44.8314 -19.8117C-2.73511 -16.3966 17.3098 17.755 79.449 4.09438C141.588 -9.56625 139.584 -36.25 199.718 -36.25C259.853 -36.25 243.817 -11.843 283.907 -3.87432C323.997 4.09438 315.979 -22.0885 364.086 -20.9501C412.194 -19.8117 450.28 8.64792 528.455 -6.15109C606.63 -20.9501 656.742 -67.7717 724.895 -50.0529C793.047 -32.334 833.137 8.64792 931.357 0.679221C1029.58 -7.28948 1047.62 -41.3042 1099.73 -36.25C1151.85 -31.1956 1151.85 -12.9814 1191.94 -9.56625C1232.03 -6.15109 1226.02 -37.7468 1270.12 -43.0091C1314.21 -48.2714 1346.3 -7.28948 1390.39 -3.87432C1434.47 -0.459165 1470.56 -43.0091 1470.56 -43.0091" stroke="#DBDBDB" stroke-miterlimit="10"/>
<path d="M-121 18.2894C-121 18.2894 -89.0981 -1.30251 -49.3759 1.18459C-9.78762 3.66331 9.71057 34.5699 68.3752 21.4377C126.92 8.35361 126.499 -16.6137 183.683 -16.62C238.195 -16.6419 233.581 5.10528 263.849 14.9904C268.247 16.4253 272.953 17.5307 277.851 18.2787C317.079 24.4335 316.311 1.2396 352.468 -2.22801C356.635 -2.62905 360.857 -2.81726 365.083 -2.79038C378.045 -2.71438 389.324 -0.718311 402.977 1.822C423.905 5.71564 442.987 8.56759 467.754 12.0144C491.072 15.2702 511.449 20.488 542.409 15.1368C617.094 2.22817 664.543 -42.7813 729.027 -27.5086C793.573 -12.2784 832.165 24.3506 924.843 16.7543C943.022 15.3324 960.832 12.6689 977.886 8.82172C1027.75 -2.57229 1047.12 -20.2993 1085.39 -16.3144C1134.33 -11.2171 1135.14 5.94145 1172.92 9.49637C1210.72 13.0585 1205.92 -15.7886 1247.5 -20.2389C1289.35 -24.7198 1320.19 13.9359 1362.55 16.6584C1379.32 17.7357 1392.79 11.5814 1406.78 7.50786C1421.54 3.21406 1435.13 -0.291371 1447.63 -6.84758C1457.03 -11.8683 1464.8 -17.7962 1470.56 -24.3562" stroke="#DBDBDB" stroke-miterlimit="10"/>
<path d="M-121 39.3188C-121 39.3188 -91.2786 20.6279 -53.9202 22.1849C-16.8492 23.7299 2.11151 51.3889 57.3015 38.7851C112.251 26.2775 113.414 3.02662 167.647 3.01394C223.881 2.97016 220.523 27.6753 256.208 37.4393C261.168 38.7974 266.402 39.8039 271.794 40.436C313.714 45.4051 315.592 20.1568 352.309 16.2066C356.848 15.7045 361.455 15.4258 366.079 15.3736C380.281 15.2405 391.693 17.354 407.754 19.9192C431.465 23.7061 451.195 23.8022 478.909 27.8156C505.296 31.6539 522.859 41.7305 556.363 36.429C627.393 25.1899 672.343 -17.7866 733.159 -4.95999C794.099 7.78148 831.193 40.0576 918.329 32.8337C935.573 31.464 952.505 29.0388 968.83 25.6004C1016.02 15.51 1034.86 -0.433999 1071.04 3.62551C1116.8 8.76092 1118.42 24.8685 1153.9 28.5632C1189.41 32.2723 1185.84 6.1777 1224.88 2.53539C1264.5 -1.16154 1294.15 34.9409 1334.72 37.1952C1355.58 38.3541 1370.46 28.8679 1387.8 25.2497C1405.84 21.483 1422.95 21.219 1440.55 14.2874C1453.23 9.08657 1463.52 2.232 1470.56 -5.69928" stroke="#DBDBDB" stroke-miterlimit="10"/>
<path d="M-121 60.3456C-121 60.3456 -93.4708 42.559 -58.4649 43.1826C-23.9219 43.7979 -5.48788 68.2052 46.2276 56.1299C97.5826 44.1987 100.328 22.6643 151.611 22.6454C209.566 22.5796 207.443 50.2611 248.568 59.8856C254.077 61.1794 259.843 62.0878 265.738 62.5905C310.32 66.4246 314.862 39.0214 352.15 34.6386C357.063 34.0369 362.055 33.6677 367.075 33.535C382.519 33.1862 394.054 35.4343 412.53 38.0137C439.014 41.711 459.403 39.0342 490.064 43.6142C519.519 48.0349 534.231 62.9512 570.318 57.7186C637.57 47.9667 680.102 7.2787 737.291 17.5859C794.584 27.912 830.221 55.7618 911.816 48.9103C928.128 47.5925 944.185 45.4049 959.774 42.3765C1004.28 33.5798 1022.59 19.4255 1056.69 23.5628C1099.28 28.7307 1101.71 43.793 1134.88 47.6275C1168.09 51.4835 1165.76 28.1464 1202.25 25.3072C1239.65 22.3976 1268.12 55.8281 1306.89 57.7295C1331.85 58.9537 1348.13 46.1414 1368.81 42.9891C1390.13 39.7384 1410.71 42.677 1433.48 35.42C1449.31 30.0622 1462.17 22.2757 1470.56 12.9551" stroke="#DBDBDB" stroke-miterlimit="10"/>
<path d="M-121 81.3722C-121 81.3722 -95.6764 64.495 -63.0094 64.1802C-31.0065 63.8717 -13.0871 85.0214 35.1538 73.4746C82.9142 62.1199 87.2433 42.3018 135.575 42.2766C195.251 42.189 194.35 72.8621 240.927 82.3318C246.981 83.5698 253.28 84.3802 259.682 84.7449C306.922 87.4527 314.121 57.851 351.99 53.0704C357.278 52.3698 362.656 51.9102 368.072 51.6961C384.756 51.1259 396.412 53.5225 417.307 56.1079C446.558 59.7274 467.611 54.266 501.22 59.4124C533.743 64.4157 545.572 84.1463 584.272 79.0079C647.656 70.5921 687.9 32.2941 741.423 40.1317C795.107 47.9928 829.248 71.4659 905.302 64.9868C920.686 63.7202 935.872 61.7694 950.719 59.1524C992.509 51.6371 1010.33 39.2808 1042.34 43.4999C1081.75 48.6936 1084.99 62.7173 1115.86 66.6915C1146.78 70.6946 1145.69 50.1214 1179.63 48.0787C1214.82 45.9613 1242.11 76.6482 1279.06 78.2635C1308.13 79.5346 1325.79 63.407 1349.82 60.7283C1374.42 57.9857 1398.43 64.0979 1426.4 56.5523C1445.33 51.0505 1460.77 42.3311 1470.56 31.6094" stroke="#DBDBDB" stroke-miterlimit="10"/>
<path d="M-121 102.399C-121 102.399 -97.8965 86.4384 -67.5539 85.1777C-38.1042 83.9541 -20.6863 101.838 24.08 90.8191C68.2457 80.0409 74.1583 61.9395 119.54 61.9078C180.937 61.7983 181.252 95.4748 233.286 104.778C239.882 105.967 246.716 106.68 253.626 106.899C303.522 108.488 313.371 76.6557 351.831 71.5022C357.494 70.703 363.257 70.1531 369.068 69.8573C386.993 69.0609 398.768 71.617 422.083 74.2023C454.099 77.7523 475.819 69.4978 512.375 75.2109C547.966 80.7966 556.884 105.309 598.226 100.297C657.673 93.0913 695.704 57.3079 745.555 62.6776C795.637 68.0719 828.276 87.1699 898.788 81.0632C913.25 79.847 927.568 78.1322 941.663 75.9282C980.721 69.6786 998.055 59.131 1027.99 63.4369C1064.22 68.6482 1068.28 81.6415 1096.84 85.7556C1125.47 89.9056 1125.63 72.1049 1157.01 70.8503C1190 69.5316 1216.11 97.426 1251.23 98.7977C1284.41 100.094 1303.45 80.6673 1330.83 78.4675C1358.7 76.2276 1386.15 85.4934 1419.32 77.6847C1454.48 69.4076 1470.56 50.2637 1470.56 50.2637" stroke="#DBDBDB" stroke-miterlimit="10"/>
<path d="M-121 123.426C-121 123.426 -100.132 108.393 -72.0984 106.175C-45.2153 104.049 -28.2855 118.654 13.0061 108.164C53.5771 97.9622 61.0733 81.5771 103.504 81.5391C166.622 81.4077 168.15 118.097 225.645 127.224C232.783 128.37 240.153 128.985 247.569 129.054C300.121 129.53 312.613 95.4418 351.672 89.934C357.71 89.0362 363.858 88.3959 370.065 88.0184C389.229 86.9916 401.124 89.7163 426.86 92.2965C461.639 95.7834 484.028 84.7295 523.531 91.0091C562.19 97.1772 568.171 126.429 612.181 121.587C667.64 115.484 703.517 82.3184 749.688 85.2232C796.176 88.148 827.304 102.874 892.274 97.1398C907.478 95.7813 920.751 94.3384 932.608 92.7042C968.908 87.7006 985.784 78.975 1013.64 83.3741C1046.7 88.5931 1051.56 100.566 1077.82 104.82C1104.16 109.117 1105.59 94.0997 1134.39 93.6219C1165.19 93.111 1190.11 118.175 1223.4 119.332C1260.7 120.627 1281.12 97.9237 1311.84 96.2066C1342.99 94.4656 1373.87 106.872 1412.25 98.8169C1452.35 90.4007 1470.56 68.9178 1470.56 68.9178" stroke="#DBDBDB" stroke-miterlimit="10"/>
<path d="M-121 144.452C-121 144.452 -102.38 130.363 -76.6429 127.173C-52.3378 124.16 -35.9242 135.422 1.9323 125.509C38.8703 115.836 47.988 101.215 87.468 101.17C152.308 101.017 155.048 140.727 218.004 149.67C225.684 150.777 233.591 151.295 241.513 151.208C296.722 150.577 311.847 114.214 351.513 108.366C357.927 107.369 364.46 106.639 371.061 106.18C391.465 104.919 403.478 107.82 431.636 110.391C469.179 113.819 492.236 99.9614 534.686 106.808C576.413 113.558 579.434 147.497 626.135 142.876C677.57 137.787 711.34 107.324 753.82 107.769C796.724 108.219 826.332 118.578 885.76 113.216C899.802 111.931 912.248 110.756 923.552 109.48C957.07 105.698 973.512 98.8108 999.295 103.311C1029.17 108.526 1034.85 119.49 1058.8 123.884C1082.84 128.328 1085.63 115.253 1111.77 116.394C1140.32 117.638 1164.11 138.905 1195.56 139.866C1236.98 141.131 1258.78 115.178 1292.85 113.946C1327.28 112.701 1361.59 128.238 1405.17 119.95C1450.22 111.383 1470.56 87.5722 1470.56 87.5722" stroke="#DBDBDB" stroke-miterlimit="10"/>
<path d="M-121 165.479C-121 165.479 -104.637 152.356 -81.1874 148.171C-59.4665 144.294 -43.5268 152.236 -9.1415 142.854C24.1987 133.756 34.903 120.853 71.4322 120.802C137.993 120.627 141.945 163.363 210.363 172.117C218.586 173.189 227.031 173.608 235.457 173.363C293.324 171.629 311.074 132.975 351.354 126.798C358.144 125.702 365.063 124.881 372.057 124.341C393.699 122.843 405.833 125.926 436.412 128.486C476.719 131.859 500.444 115.193 545.842 122.606C590.636 129.939 590.676 168.496 640.09 164.166C687.476 160.013 719.17 132.32 757.952 130.315C797.281 128.282 825.36 134.283 879.247 129.293C892.126 128.082 903.737 127.165 914.496 126.256C945.208 123.663 961.241 118.636 984.947 123.249C1011.65 128.444 1018.13 138.415 1039.78 142.948C1061.53 147.539 1065.53 138.139 1089.15 139.165C1115.62 140.315 1138.12 159.62 1167.73 160.4C1213.27 161.6 1236.45 132.43 1273.86 131.685C1311.57 130.935 1349.31 149.596 1398.1 141.082C1448.09 132.358 1470.56 106.227 1470.56 106.227" stroke="#DBDBDB" stroke-miterlimit="10"/>
<path d="M-121 186.514C-121 186.514 -106.889 174.385 -85.7319 169.176C-66.5902 164.464 -51.1277 169.061 -20.2153 160.206C9.52908 151.686 21.8179 140.498 55.3965 140.441C123.678 140.244 128.844 186.011 202.722 194.571C211.489 195.611 220.473 195.932 229.4 195.525C289.929 192.692 310.296 151.735 351.195 145.238C358.361 144.042 365.665 143.131 373.053 142.51C395.932 140.772 408.188 144.043 441.189 146.588C484.259 149.909 508.652 130.433 556.997 138.412C604.86 146.328 601.899 189.413 654.044 185.463C697.369 182.181 727.003 157.313 762.084 152.869C797.84 148.339 824.387 149.995 872.733 145.378C884.449 144.239 895.219 143.569 905.441 143.04C933.326 141.597 948.974 138.454 970.598 143.194C994.128 148.351 1001.42 157.347 1020.76 162.02C1040.22 166.758 1045.51 160.202 1066.53 161.945C1090.84 163.96 1112.12 180.332 1139.9 180.942C1189.56 182.033 1214.11 149.688 1254.87 149.432C1295.86 149.175 1337.03 170.955 1391.02 162.222C1445.96 153.335 1470.56 124.889 1470.56 124.889" stroke="#DBDBDB" stroke-miterlimit="10"/>
<path d="M-121 207.54C-113.104 200.552 -102.619 194.625 -90.2764 190.174C-73.6902 184.657 -58.726 185.881 -31.2891 177.551C-5.13817 169.611 8.73285 160.136 39.3607 160.072C109.364 159.853 115.743 208.655 195.081 217.017C204.393 218.032 213.918 218.255 223.344 217.68C286.549 213.815 309.512 170.48 351.036 163.67C358.578 162.374 366.267 161.372 374.05 160.671C398.164 158.691 410.543 162.154 445.966 164.682C491.799 167.953 516.86 145.665 568.152 154.211C619.083 162.709 613.106 210.205 667.998 206.752C707.261 204.283 734.831 182.282 766.216 175.415C798.394 168.374 823.415 165.699 866.219 161.454C876.773 160.389 886.751 160.408 896.385 159.816C921.294 158.285 936.718 158.244 956.25 163.131C976.624 168.227 984.704 176.271 1001.74 181.084C1018.91 185.969 1025.49 182.291 1043.91 184.716C1066.06 187.633 1086.12 201.027 1112.07 201.476C1165.86 202.407 1191.78 166.9 1235.88 167.172C1280.15 167.37 1324.76 192.302 1383.94 183.355C1443.84 174.3 1470.56 143.543 1470.56 143.543" stroke="#DBDBDB" stroke-miterlimit="10"/>
<path d="M-121 228.567C-114.164 221.931 -105.299 216.04 -94.8209 211.172C-80.7411 204.878 -66.3201 202.705 -42.3629 194.895C-19.8014 187.54 -4.35225 179.773 23.325 179.704C95.049 179.463 102.623 231.368 187.441 239.464C197.298 240.453 207.364 240.578 217.288 239.834C283.156 234.856 308.723 189.22 350.877 182.101C358.795 180.705 366.87 179.613 375.046 178.833C400.395 176.607 412.89 180.302 450.742 182.776C499.331 186.046 525.068 160.897 579.308 170.009C633.307 179.09 624.301 230.836 681.952 228.042C717.164 226.335 742.638 207.237 770.348 197.96C798.926 188.394 822.443 181.403 859.705 177.531C868.813 176.585 878.088 176.27 887.329 176.592C909.547 177.293 924.485 178.008 941.902 183.068C959.142 188.076 967.989 195.196 982.715 200.148C997.594 205.18 1005.45 204.418 1021.29 207.488C1041.26 211.356 1060.11 221.716 1084.24 222.01C1142.15 222.717 1169.45 184.161 1216.89 184.911C1264.45 185.612 1312.48 213.645 1376.87 204.487C1441.72 195.263 1470.56 162.197 1470.56 162.197" stroke="#DBDBDB" stroke-miterlimit="10"/>
<path d="M-121 249.594C-115.207 243.257 -107.929 237.396 -99.3654 232.169C-87.7165 225.115 -73.9068 219.536 -53.4367 212.24C-34.4579 205.475 -17.4373 199.411 7.28919 199.335C80.7344 199.072 89.5348 253.986 179.8 261.91C190.205 262.87 200.812 262.897 211.232 261.989C279.764 255.897 307.929 207.956 350.717 200.533C359.01 199.033 367.471 197.85 376.043 196.994C402.62 194.504 415.249 198.399 455.518 200.871C506.877 204.071 533.276 176.128 590.463 185.807C647.53 195.47 635.498 251.244 695.907 249.331C727.095 248.343 750.412 232.183 774.48 220.506C799.425 208.404 821.471 197.107 853.191 193.607C861.463 192.696 869.952 192.615 878.274 193.368C895.712 194.572 912.506 197.856 927.553 203.005C941.702 207.893 951.275 214.12 963.694 219.212C974.674 223.55 986.392 227.251 998.673 230.259C1016.38 235.14 1034.11 242.399 1056.41 242.544C1118.44 242.948 1147.12 201.421 1197.9 202.65C1248.74 203.854 1300.19 234.926 1369.79 225.619C1439.58 216.164 1470.56 180.851 1470.56 180.851" stroke="#DBDBDB" stroke-miterlimit="10"/>
<path d="M-121 270.621C-121 270.621 -83.9129 219.251 -8.74658 218.966C66.4198 218.682 76.4462 276.604 172.159 284.356C267.871 292.108 300.949 227.787 350.558 218.965C400.167 210.144 406.166 215.834 460.295 218.965C514.423 222.097 541.484 191.36 601.619 201.606C661.753 211.851 646.72 271.332 709.861 270.621C773.002 269.909 803.07 199.898 869.218 210.144C935.366 220.389 962.427 263.079 1028.57 263.079C1094.72 263.079 1124.79 218.682 1178.91 220.389C1233.03 222.097 1287.94 256.323 1362.72 246.752C1437.49 237.181 1470.56 199.506 1470.56 199.506" stroke="#DBDBDB" stroke-miterlimit="10"/>
</g>
<defs>
<clipPath id="clip0_2648_2626">
<rect width="1350" height="231" fill="white"/>
</clipPath>
</defs>
</svg>
