<svg width="525" height="1405" viewBox="0 0 525 1405" fill="none" xmlns="http://www.w3.org/2000/svg">
<g clip-path="url(#clip0_544_2673)">
<path d="M496.878 -848.25C496.878 -848.25 540.096 -705.49 532.893 -529.109C525.69 -352.728 453.66 -268.741 482.472 -8.38129C511.284 251.978 567.563 243.579 567.563 495.54C567.563 747.501 516.086 680.311 499.279 848.285C482.472 1016.26 537.695 982.664 535.294 1184.23C532.893 1385.8 472.868 1545.38 504.081 1872.93C535.294 2200.47 634.046 2410.44 596.675 2696C559.304 2981.55 472.868 3149.53 489.675 3561.06C506.482 3972.6 578.223 4048.19 567.563 4266.55C556.902 4484.92 518.487 4484.92 511.284 4652.89C504.081 4820.87 570.72 4795.67 581.819 4980.44C592.917 5165.21 506.482 5299.66 499.279 5484.36C492.076 5669.07 581.819 5820.31 581.819 5820.31" stroke="#DBDBDB" stroke-miterlimit="10"/>
<path d="M452.536 -848.25C452.536 -848.25 493.858 -714.583 488.612 -548.15C483.384 -382.277 418.198 -300.581 445.896 -54.7798C473.492 190.518 526.151 188.754 526.164 428.351C526.21 656.756 480.343 637.424 459.494 764.246C456.467 782.671 454.136 802.39 452.558 822.911C439.577 987.276 488.496 984.055 495.81 1135.55C496.656 1153.01 497.052 1170.7 496.996 1188.41C496.835 1242.72 492.626 1289.98 487.268 1347.18C479.056 1434.87 473.04 1514.82 465.771 1618.59C458.904 1716.3 447.899 1801.67 459.185 1931.39C486.411 2244.32 581.342 2443.13 549.13 2713.31C517.007 2983.76 439.752 3145.45 455.774 3533.77C458.773 3609.94 464.39 3684.56 472.504 3756.02C496.536 3964.94 533.924 4046.12 525.519 4206.44C514.769 4411.5 478.579 4414.89 471.081 4573.2C463.568 4731.57 524.41 4711.48 533.797 4885.67C543.248 5061.04 461.718 5190.27 455.976 5367.75C453.704 5437.98 466.684 5494.42 475.275 5553.08C484.332 5614.9 491.725 5671.84 505.553 5724.21C516.142 5763.62 528.645 5796.16 542.481 5820.31" stroke="#DBDBDB" stroke-miterlimit="10"/>
<path d="M408.182 -848.25C408.182 -848.25 447.604 -723.72 444.32 -567.19C441.061 -411.865 382.725 -332.421 409.308 -101.178C435.688 129.058 484.727 133.928 484.754 361.162C484.846 596.779 432.74 582.713 412.146 732.231C409.282 753.009 407.159 774.942 405.826 797.534C395.346 973.174 448.597 981.043 456.929 1134.89C457.988 1153.9 458.576 1173.21 458.686 1192.58C458.967 1252.09 454.509 1299.9 449.099 1367.2C441.111 1466.54 440.909 1549.21 432.444 1665.33C424.349 1775.89 403.096 1849.48 414.277 1989.86C437.982 2287.47 528.625 2475.81 501.572 2730.62C474.698 2985.96 406.624 3141.38 421.86 3506.48C424.749 3578.73 429.864 3649.67 437.116 3718.07C458.398 3915.8 492.026 3994.73 483.464 4146.31C472.633 4338.07 438.66 4344.85 430.867 4493.5C423.044 4642.27 478.081 4627.32 485.763 4790.89C493.56 4956.91 417.416 5081.12 412.661 5251.14C410.217 5338.53 430.225 5400.88 437.856 5473.51C445.8 5549.12 446.357 5620.83 460.977 5694.56C471.946 5747.68 486.403 5790.81 503.131 5820.31" stroke="#DBDBDB" stroke-miterlimit="10"/>
<path d="M363.829 -848.25C363.829 -848.25 401.343 -732.905 400.028 -586.232C398.73 -441.499 347.252 -364.262 372.72 -147.577C397.884 67.5976 443.303 79.1024 443.343 293.974C443.482 536.801 385.098 527.906 364.799 700.216C362.07 723.299 360.154 747.457 359.094 772.159C351.007 958.955 408.804 977.984 418.048 1134.22C419.317 1154.8 420.096 1175.72 420.376 1196.76C421.111 1261.46 416.37 1309.8 410.929 1387.21C403.131 1498.18 408.777 1583.6 399.117 1712.07C389.793 1835.49 358.333 1897.13 369.369 2048.33C389.937 2330.11 475.753 2508.32 454.014 2747.94C432.235 2987.99 373.496 3137.31 387.947 3479.19C390.727 3547.53 395.34 3614.81 401.728 3680.13C420.281 3866.59 450.134 3943.34 441.408 4086.2C430.508 4264.64 398.74 4274.82 390.653 4413.81C382.52 4552.97 431.741 4543.19 437.729 4696.11C443.866 4852.81 373.357 4972.09 369.346 5134.53C366.764 5239.11 393.787 5307.3 400.436 5393.95C407.292 5483.29 401.094 5569.51 416.4 5664.91C427.7 5731.27 444.123 5785.13 463.781 5820.31" stroke="#DBDBDB" stroke-miterlimit="10"/>
<path d="M319.485 -848.25C319.485 -848.25 355.081 -742.146 355.745 -605.273C356.396 -471.183 311.789 -396.102 336.142 -193.976C360.091 6.13804 401.89 24.2767 401.943 226.785C402.128 476.824 337.434 473.049 317.461 668.201C314.85 693.566 313.141 719.958 312.372 746.783C306.661 944.716 369.094 974.88 379.177 1133.55C380.655 1155.71 381.624 1178.24 382.076 1200.93C383.279 1270.84 378.224 1319.68 372.771 1407.22C365.137 1529.78 376.656 1618 365.801 1758.81C355.249 1895.08 313.634 1944.65 324.472 2106.8C342.222 2372.37 422.997 2540.99 406.467 2765.25C389.887 2990.18 340.379 3133.23 354.044 3451.89C356.716 3516.35 360.83 3579.98 366.35 3642.19C382.2 3817.29 408.261 3891.93 399.363 4026.08C388.409 4191.21 358.831 4204.78 350.449 4334.11C342.006 4463.67 385.397 4459.11 389.705 4601.33C394.171 4748.76 329.449 4863.11 326.042 5017.91C323.361 5139.72 357.376 5213.71 363.026 5314.38C368.81 5417.45 355.919 5518.09 371.833 5635.26C383.438 5714.59 401.828 5779.28 424.441 5820.31" stroke="#DBDBDB" stroke-miterlimit="10"/>
<path d="M275.134 -848.25C275.134 -848.25 308.797 -751.448 311.456 -624.314C314.036 -500.922 276.318 -427.942 299.557 -240.374C322.29 -55.3224 360.468 -30.549 360.535 159.596C360.766 416.846 289.738 418.167 270.116 636.186C267.608 663.824 266.105 692.457 265.642 721.408C262.291 930.47 329.43 971.738 340.299 1132.88C341.985 1156.61 343.144 1180.76 343.768 1205.11C345.448 1280.21 340.057 1329.55 334.604 1427.23C327.117 1561.38 344.527 1652.39 332.477 1805.55C320.696 1954.68 268.997 1992.04 279.566 2165.26C294.765 2414.34 370.237 2573.69 358.911 2782.56C347.534 2992.4 307.254 3129.16 320.134 3424.6C322.699 3485.19 326.315 3545.19 330.964 3604.24C344.145 3767.89 366.391 3840.52 357.31 3965.96C346.318 4117.77 318.914 4134.75 310.237 4254.42C301.484 4374.38 339.028 4375.07 341.674 4506.55C344.455 4644.76 285.622 4754.16 282.729 4901.3C279.996 5040.34 320.969 5120.12 325.608 5234.82C330.333 5351.61 310.79 5466.63 327.259 5605.61C344.717 5752.94 385.094 5820.31 385.094 5820.31" stroke="#DBDBDB" stroke-miterlimit="10"/>
<path d="M230.786 -848.25C230.786 -848.25 262.492 -760.814 267.169 -643.356C271.654 -530.717 240.85 -459.782 262.975 -286.773C284.492 -116.783 319.05 -85.374 319.13 92.407C319.407 356.869 242.024 363.272 222.774 604.171C220.358 634.079 219.061 664.957 218.916 696.033C217.911 916.223 289.807 968.561 301.424 1132.22C303.318 1157.52 304.668 1183.28 305.464 1209.28C307.63 1289.58 301.883 1339.42 296.441 1447.25C289.087 1592.97 312.401 1686.78 299.157 1852.29C286.147 2014.27 224.451 2039.33 234.665 2223.73C247.536 2456.1 317.486 2606.43 311.36 2799.88C305.191 2994.66 274.132 3125.09 286.226 3397.31C289.091 3461.01 292.135 3516.63 295.581 3566.3C306.135 3718.4 324.538 3789.11 315.26 3905.84C304.252 4044.33 279 4064.72 270.028 4174.72C260.965 4285.08 292.638 4291.08 293.646 4411.78C294.723 4540.82 241.859 4645.23 239.421 4784.69C236.688 4940.97 284.573 5026.53 288.194 5155.26C291.866 5285.78 265.7 5415.17 282.689 5575.97C300.44 5743.99 345.75 5820.31 345.75 5820.31" stroke="#DBDBDB" stroke-miterlimit="10"/>
<path d="M186.439 -848.25C186.439 -848.25 216.154 -770.235 222.883 -662.397C229.238 -560.56 205.486 -491.788 226.394 -333.171C246.794 -178.403 277.632 -140.201 277.726 25.2181C278.049 296.892 194.296 308.374 175.433 572.156C173.099 604.336 172.008 637.464 172.19 670.657C173.521 901.98 250.216 965.352 262.55 1131.55C264.652 1158.43 266.193 1185.8 267.161 1213.46C269.82 1298.95 263.702 1349.28 258.279 1467.26C251.048 1624.56 280.276 1721.17 265.836 1899.03C251.599 2073.87 180.018 2086.53 189.764 2282.2C200.497 2497.71 264.748 2639.2 263.808 2817.19C262.86 2996.96 241.011 3121.01 252.319 3370.02C255.03 3428.85 257.509 3481 260.2 3528.36C268.178 3668.8 282.703 3737.69 273.21 3845.72C262.212 3970.89 239.087 3994.69 229.82 4095.03C220.447 4195.78 248.023 4207.44 245.618 4317C242.993 4436.6 198.139 4536.3 196.112 4668.08C193.443 4841.62 248.183 4932.94 250.781 5075.69C253.406 5219.95 220.637 5363.7 238.118 5546.32C256.186 5735.05 306.406 5820.31 306.406 5820.31" stroke="#DBDBDB" stroke-miterlimit="10"/>
<path d="M142.092 -848.25C142.092 -848.25 169.77 -779.69 178.597 -681.438C186.773 -590.429 170.023 -523.642 189.812 -379.57C209 -239.876 236.214 -195.026 236.321 -41.9708C236.691 236.914 146.555 253.476 128.092 540.141C125.831 574.595 124.947 609.979 125.464 645.282C129.121 887.744 210.647 962.116 223.675 1130.88C225.986 1159.33 227.718 1188.32 228.857 1217.63C232.017 1308.31 225.514 1359.15 220.116 1487.27C213.001 1656.16 248.15 1755.56 232.516 1945.78C217.05 2133.46 135.729 2133.63 144.862 2340.67C153.62 2539.21 212.027 2672.01 216.257 2834.51C220.546 2999.29 207.889 3116.94 218.412 3342.72C220.968 3396.69 222.901 3445.34 224.817 3490.42C230.287 3619.1 240.89 3686.27 231.161 3785.6C220.204 3897.47 199.174 3924.65 189.612 4015.33C179.929 4106.48 199.755 4123.24 197.591 4222.22C195.166 4333.09 154.449 4427.37 152.803 4551.46C150.274 4742.27 211.797 4839.37 213.367 4996.13C214.949 5154.12 175.591 5312.25 193.548 5516.67C211.948 5726.13 267.062 5820.31 267.062 5820.31" stroke="#DBDBDB" stroke-miterlimit="10"/>
<path d="M97.728 -848.251C97.728 -848.251 123.309 -789.126 134.295 -700.479C144.234 -620.277 134.538 -555.49 153.214 -425.969C171.185 -301.341 194.781 -249.852 194.901 -109.16C195.317 176.937 98.7883 198.58 80.7341 508.126C78.5413 544.859 77.8635 582.501 78.7215 619.906C84.6975 873.518 171.081 958.853 184.784 1130.22C187.306 1160.24 189.228 1190.85 190.537 1221.8C194.203 1317.66 187.305 1369.01 181.937 1507.29C174.932 1687.75 216.009 1789.95 199.18 1992.52C182.485 2193.06 91.6125 2180.65 99.9444 2399.14C106.867 2580.67 159.317 2704.83 168.689 2851.82C178.243 3001.63 174.751 3112.87 184.489 3315.43C186.89 3364.52 188.304 3409.65 189.419 3452.47C192.464 3569.31 199.092 3634.88 189.096 3725.48C178.218 3824.07 159.244 3854.62 149.388 3935.64C139.395 4017.19 153.222 4039.36 149.547 4127.44C145.298 4229.29 110.766 4318.44 109.479 4434.85C107.179 4642.93 175.398 4745.79 175.937 4916.56C176.48 5088.3 130.543 5260.81 148.962 5487.02C167.706 5717.23 227.703 5820.31 227.703 5820.31" stroke="#DBDBDB" stroke-miterlimit="10"/>
<path d="M53.377 -848.251C68.1167 -815.166 80.6164 -771.235 90.005 -719.52C101.642 -650.025 99.0597 -587.326 116.629 -472.367C133.375 -362.796 153.36 -304.678 153.493 -176.349C153.955 116.96 51.0259 143.688 33.3891 476.112C31.249 515.125 30.7781 555.034 31.9917 594.532C40.1427 859.355 131.541 955.569 145.906 1129.55C148.639 1161.15 150.752 1193.37 152.229 1225.98C156.407 1327.02 149.103 1378.88 143.77 1527.3C136.871 1719.34 183.88 1824.34 165.856 2039.26C147.932 2252.65 47.7575 2227.61 55.0391 2457.61C60.2473 2622.11 106.65 2737.63 121.134 2869.13C135.984 3003.96 141.626 3108.79 150.579 3288.14C152.824 3332.36 152.785 3374.17 154.034 3414.53C157.262 3518.9 157.348 3583.53 147.042 3665.36C136.293 3750.73 119.327 3784.58 109.176 3855.94C98.8735 3927.89 106.632 3955.48 101.516 4032.67C95.3642 4125.48 67.1134 4209.5 66.1667 4318.24C64.2047 4543.6 139.091 4652.23 138.52 4837C138.102 5022.49 85.5169 5209.38 104.388 5457.38C123.484 5708.34 188.355 5820.31 188.355 5820.31" stroke="#DBDBDB" stroke-miterlimit="10"/>
<path d="M9.03339 -848.251C23.0303 -819.609 35.4546 -782.465 45.7226 -738.562C58.9972 -679.568 63.579 -619.145 80.0512 -518.766C95.5638 -424.234 111.945 -359.503 112.092 -243.537C112.6 56.9822 3.12563 88.7182 -13.9486 444.097C-16.0365 485.398 -16.3002 527.575 -14.7304 569.156C-4.23143 845.141 92.0205 952.263 107.035 1128.88C109.981 1162.06 112.284 1195.89 113.93 1230.15C118.623 1336.37 110.83 1388.72 105.612 1547.31C98.7164 1750.9 151.759 1858.74 132.539 2086C113.387 2312.25 4.24824 2274.52 10.1414 2516.07C13.7408 2663.61 54.022 2770.34 73.5866 2886.45C93.7642 3006.19 108.508 3104.72 116.675 3260.85C118.67 3299.01 119.334 3337.87 118.655 3376.59C117.176 3469.68 115.669 3532.27 104.997 3605.25C94.433 3677.48 79.418 3714.55 68.9723 3776.25C58.3594 3838.59 59.9663 3871.5 53.4918 3937.89C45.3341 4021.54 23.4826 4100.55 22.8621 4201.63C21.3724 4444.26 102.691 4558.66 101.11 4757.43C99.6308 4956.68 40.5062 5157.96 59.8212 5427.73C79.2766 5699.46 149.015 5820.31 149.015 5820.31" stroke="#DBDBDB" stroke-miterlimit="10"/>
<path d="M-35.3182 -848.251C-21.954 -823.978 -9.59142 -793.485 1.43241 -757.603C16.3112 -708.795 28.0772 -650.933 43.4654 -565.164C57.7326 -485.644 70.5235 -414.329 70.684 -310.726C71.2381 -2.99523 -44.5824 33.8779 -61.2941 412.082C-63.3201 455.68 -63.3763 500.121 -61.4605 543.781C-48.6135 830.927 52.5018 948.936 68.1567 1128.22C71.3214 1162.96 73.8154 1198.41 75.6219 1234.33C80.8724 1345.69 72.6586 1398.6 67.4448 1567.33C60.6947 1782.52 119.629 1893.13 99.2152 2132.74C78.8347 2371.84 -38.7984 2321.43 -34.7641 2574.54C-32.6812 2705.22 1.40294 2802.91 26.0312 2903.76C51.5556 3008.27 75.383 3100.65 82.7646 3233.55C84.6863 3268.21 84.8571 3303.78 83.2694 3338.65C80.7289 3411.71 73.8022 3482.08 62.9434 3545.13C52.6329 3604.41 39.5008 3644.52 28.7602 3696.55C19.6116 3742.56 11.8059 3791.66 5.46019 3843.11C-4.83284 3917.31 -20.1448 3991.58 -20.4505 4085.01C-21.3009 4344.92 66.2837 4465.1 63.6921 4677.87C61.1519 4890.87 -4.38318 5106.44 15.2469 5398.08C35.1899 5690.49 109.668 5820.31 109.668 5820.31" stroke="#DBDBDB" stroke-miterlimit="10"/>
<path d="M-79.6657 -848.251C-79.6657 -848.251 28.6793 -692.858 29.2795 -377.915C29.8798 -62.9728 -92.2863 -20.9626 -108.636 380.067C-124.985 781.096 10.6761 919.689 29.2819 1127.55C47.8872 1335.41 35.8865 1360.54 29.2819 1587.34C22.6767 1814.13 87.5037 1927.52 65.8947 2179.48C44.2857 2431.44 -81.1664 2368.45 -79.6658 2633.01C-78.1652 2897.57 69.4962 3023.55 47.8872 3300.7C26.2782 3577.86 -63.7592 3691.24 -63.7592 3968.4C-63.7592 4245.56 29.8797 4371.54 26.2782 4598.3C22.6767 4825.07 -49.5108 5055.13 -29.3237 5368.43C-9.13656 5681.73 70.324 5820.31 70.324 5820.31" stroke="#DBDBDB" stroke-miterlimit="10"/>
</g>
<rect x="0.5" y="0.5" width="524" height="1404" stroke="#DBDBDB"/>
<defs>
<clipPath id="clip0_544_2673">
<rect width="525" height="1405" fill="white"/>
</clipPath>
</defs>
</svg>
