<svg width="195" height="1896" viewBox="0 0 195 1896" fill="none" xmlns="http://www.w3.org/2000/svg">
<g clip-path="url(#clip0_2675_2626)">
<path d="M205.611 -2.48501e-06C205.611 -2.48501e-06 227.399 38.0041 224.633 85.3244C221.877 132.485 187.505 155.713 202.109 225.599C216.66 295.342 244.427 294.84 244.434 362.962C244.458 427.902 220.273 422.406 209.28 458.464C207.684 463.702 206.454 469.309 205.623 475.143C198.778 521.875 224.572 520.96 228.428 564.033C228.874 568.997 229.084 574.027 229.054 579.061C228.969 594.503 226.749 607.939 223.924 624.204C219.594 649.134 216.422 671.867 212.589 701.37C208.968 729.15 203.166 753.425 209.117 790.306C223.473 879.277 273.528 935.802 256.543 1012.62C239.605 1089.51 198.87 1135.49 207.318 1245.89C208.899 1267.55 211.861 1288.76 216.14 1309.08C228.811 1368.48 248.526 1391.56 244.094 1437.14C238.425 1495.45 219.343 1496.41 215.389 1541.42C211.428 1586.45 243.509 1580.74 248.458 1630.26C253.442 1680.13 210.452 1716.87 207.424 1767.33C206.226 1787.3 213.071 1803.34 217.601 1820.02C222.376 1837.6 226.275 1853.79 233.566 1868.68C239.149 1879.88 245.742 1889.13 253.037 1896" stroke="#DBDBDB" stroke-miterlimit="10"/>
<path d="M182.223 -2.36934e-06C182.223 -2.36934e-06 203.01 35.4065 201.278 79.9108C199.56 124.073 168.8 146.66 182.817 212.407C196.727 277.868 222.584 279.252 222.598 343.859C222.647 410.85 195.172 406.85 184.313 449.361C182.803 455.269 181.684 461.505 180.981 467.928C175.455 517.866 203.533 520.103 207.927 563.843C208.485 569.251 208.795 574.74 208.853 580.248C209.001 597.166 206.651 610.761 203.798 629.894C199.586 658.14 199.479 681.645 195.016 714.66C190.747 746.094 179.541 767.017 185.437 806.93C197.936 891.546 245.731 945.094 231.466 1017.54C217.296 1090.14 181.402 1134.33 189.435 1238.13C190.959 1258.67 193.656 1278.85 197.48 1298.29C208.701 1354.51 226.433 1376.95 221.918 1420.05C216.207 1474.57 198.293 1476.5 194.185 1518.76C190.06 1561.06 219.08 1556.81 223.13 1603.31C227.242 1650.52 187.092 1685.83 184.585 1734.17C183.296 1759.02 193.846 1776.75 197.87 1797.4C202.059 1818.9 202.352 1839.28 210.061 1860.25C215.845 1875.35 223.468 1887.61 232.288 1896" stroke="#DBDBDB" stroke-miterlimit="10"/>
<path d="M158.839 -2.40721e-06C158.839 -2.40721e-06 178.62 32.795 177.927 74.4968C177.242 115.647 150.099 137.607 163.528 199.215C176.796 260.393 200.745 263.664 200.766 324.756C200.839 393.797 170.054 391.268 159.351 440.259C157.912 446.822 156.902 453.69 156.343 460.713C152.079 513.823 182.554 519.233 187.428 563.654C188.098 569.507 188.508 575.454 188.656 581.435C189.044 599.832 186.544 613.574 183.675 635.584C179.563 667.134 182.54 691.423 177.447 727.949C172.53 763.038 155.942 780.564 161.761 823.553C172.606 903.67 217.856 954.337 206.393 1022.47C194.909 1090.72 163.937 1133.17 171.557 1230.37C173.022 1249.81 175.455 1268.93 178.823 1287.51C188.606 1340.52 204.347 1362.34 199.746 1402.96C193.999 1453.69 177.248 1456.59 172.983 1496.1C168.695 1535.67 194.648 1532.89 197.806 1576.37C201.042 1620.92 163.863 1654.83 161.749 1701.02C160.387 1730.75 174.636 1750.14 178.142 1774.78C181.757 1800.18 178.489 1824.69 186.559 1851.82C192.518 1870.68 201.177 1886 211.543 1896" stroke="#DBDBDB" stroke-miterlimit="10"/>
<path d="M135.455 -2.52771e-06C135.455 -2.52771e-06 154.224 30.1676 154.574 69.0831C154.917 107.208 131.397 128.555 144.238 186.023C156.866 242.919 178.906 248.076 178.934 305.653C179.031 376.744 144.919 375.671 134.388 431.156C133.011 438.368 132.11 445.872 131.704 453.499C128.693 509.775 161.613 518.351 166.93 563.464C167.709 569.763 168.22 576.169 168.458 582.622C169.092 602.497 166.427 616.383 163.552 641.274C159.526 676.12 165.6 701.201 159.877 741.238C154.313 779.982 132.37 794.074 138.084 840.177C147.444 915.685 190.035 963.626 181.319 1027.39C172.577 1091.34 146.472 1132.01 153.677 1222.61C155.086 1240.94 157.256 1259.03 160.166 1276.72C168.524 1326.5 182.265 1347.73 177.573 1385.86C171.797 1432.81 156.201 1436.67 151.781 1473.45C147.33 1510.28 170.209 1508.98 172.481 1549.42C174.836 1591.34 140.709 1623.85 138.912 1667.86C137.499 1702.49 155.434 1723.53 158.413 1752.15C161.463 1781.46 154.666 1810.07 163.057 1843.39C169.176 1865.94 178.873 1884.33 190.797 1896" stroke="#DBDBDB" stroke-miterlimit="10"/>
<path d="M112.071 -2.64821e-06C112.071 -2.64821e-06 129.82 27.5228 131.222 63.6693C132.583 98.7521 112.695 119.502 124.949 172.831C136.935 225.445 157.066 232.488 157.101 286.55C157.223 359.691 119.771 360.067 109.425 422.054C108.102 429.912 107.31 438.053 107.065 446.284C105.299 505.724 140.7 517.458 146.431 563.275C147.32 570.02 147.931 576.885 148.26 583.809C149.146 605.162 146.303 619.19 143.428 646.964C139.48 685.104 148.66 710.979 142.307 754.527C136.095 796.926 108.834 807.55 114.408 856.8C122.422 927.618 162.217 972.924 156.245 1032.31C150.246 1091.97 129.007 1130.85 135.798 1214.85C137.151 1232.08 139.058 1249.14 141.509 1265.93C148.459 1312.46 160.189 1333.11 155.401 1368.77C149.605 1411.93 135.155 1416.76 130.58 1450.79C125.964 1484.89 145.761 1485.09 147.156 1522.47C148.623 1561.77 117.601 1592.87 116.075 1634.71C114.634 1674.24 136.238 1696.92 138.685 1729.53C141.176 1762.74 130.871 1795.44 139.555 1834.96C148.76 1876.84 170.051 1896 170.051 1896" stroke="#DBDBDB" stroke-miterlimit="10"/>
<path d="M88.6859 -2.76873e-06C88.6859 -2.76873e-06 105.404 24.8599 107.87 58.2555C110.235 90.2809 93.9925 110.449 105.659 159.639C117.004 207.97 135.226 216.9 135.268 267.447C135.414 342.639 94.6116 344.459 84.4614 412.951C83.1873 421.455 82.5033 430.234 82.4267 439.069C81.8972 501.674 119.807 516.554 125.932 563.085C126.931 570.278 127.643 577.602 128.063 584.996C129.205 607.826 126.174 621.996 123.305 652.655C119.427 694.087 131.72 720.758 124.737 767.817C117.877 813.87 85.3455 820.995 90.731 873.424C97.5176 939.491 134.402 982.231 131.171 1037.23C127.918 1092.61 111.541 1129.7 117.919 1207.09C119.429 1225.21 121.034 1241.02 122.851 1255.14C128.416 1298.39 138.12 1318.49 133.228 1351.68C127.423 1391.05 114.108 1396.85 109.378 1428.13C104.599 1459.5 121.3 1461.21 121.831 1495.53C122.399 1532.22 94.5245 1561.9 93.2386 1601.55C91.7977 1645.99 117.047 1670.31 118.956 1706.91C120.893 1744.02 107.096 1780.81 116.053 1826.53C125.413 1874.3 149.305 1896 149.305 1896" stroke="#DBDBDB" stroke-miterlimit="10"/>
<path d="M65.3016 -2.88923e-06C65.3016 -2.88923e-06 80.9701 22.1812 84.5181 52.8418C87.8687 81.7959 75.3446 101.349 86.369 146.447C97.1261 190.45 113.387 201.312 113.436 248.344C113.606 325.586 69.4444 328.85 59.4983 403.849C58.2674 412.998 57.6922 422.417 57.7881 431.855C58.4901 497.624 98.9303 515.642 105.434 562.896C106.542 570.537 107.355 578.319 107.865 586.182C109.267 610.489 106.041 624.801 103.182 658.344C99.3689 703.069 114.78 730.535 107.167 781.106C99.6592 830.814 61.9158 834.413 67.0545 890.047C72.714 951.32 106.593 991.55 106.097 1042.16C105.597 1093.27 94.0763 1128.54 100.039 1199.33C101.468 1216.06 102.776 1230.89 104.194 1244.35C108.401 1284.28 116.06 1303.87 111.055 1334.59C105.256 1370.17 93.062 1376.94 88.1759 1405.47C83.2337 1434.11 97.7741 1437.43 96.5059 1468.58C95.1216 1502.58 71.4705 1530.93 70.402 1568.4C68.9948 1617.74 97.8582 1643.7 99.2279 1684.29C100.612 1725.3 83.3335 1766.18 92.5513 1818.1C102.078 1871.76 128.559 1896 128.559 1896" stroke="#DBDBDB" stroke-miterlimit="10"/>
<path d="M41.919 -3.00974e-06C41.919 -3.00974e-06 56.5136 19.4931 61.1677 47.428C65.4789 73.3037 56.6466 92.2924 67.0813 133.255C77.1989 172.972 91.5485 185.724 91.6051 229.241C91.7999 308.533 44.2726 313.242 34.537 394.746C33.3451 404.542 32.8788 414.602 33.1513 424.64C35.0799 493.577 78.0674 514.722 84.9368 562.706C86.1555 570.795 87.0686 579.037 87.6691 587.369C89.3352 613.151 85.9063 627.606 83.0601 664.035C79.3085 712.051 97.8424 740.314 89.5986 794.395C81.4433 847.758 38.5641 847.806 43.3797 906.671C47.9977 963.121 78.7952 1000.88 81.0253 1047.08C83.2869 1093.93 76.613 1127.38 82.1619 1191.57C83.5093 1206.92 84.5289 1220.75 85.5392 1233.57C88.4232 1270.15 94.0141 1289.25 88.884 1317.49C83.1064 1349.3 72.0175 1357.03 66.976 1382.81C61.8703 1408.73 72.324 1413.49 71.1828 1441.63C69.9046 1473.16 48.4347 1499.96 47.5672 1535.24C46.2334 1589.49 78.6736 1617.1 79.5014 1661.67C80.3357 1706.59 59.5828 1751.55 69.0512 1809.67C78.7532 1869.22 107.814 1896 107.814 1896" stroke="#DBDBDB" stroke-miterlimit="10"/>
<path d="M18.5245 -3.13026e-06C18.5245 -3.13026e-06 32.013 16.8102 37.8056 42.0142C43.0464 64.8174 37.934 83.2375 47.7816 120.063C57.2571 155.497 69.699 170.136 69.7625 210.138C69.9816 291.48 19.0836 297.634 9.56381 385.644C8.40757 396.088 8.0502 406.79 8.50258 417.425C11.6537 489.532 57.2023 513.794 64.4281 562.516C65.7577 571.053 66.7713 579.754 67.4614 588.556C69.3946 615.811 65.757 630.411 62.9268 669.725C59.2331 721.033 80.8925 750.092 72.0187 807.684C63.2156 864.702 15.2999 861.175 19.6932 923.294C23.3434 974.907 50.9994 1010.21 55.9415 1052C60.9787 1094.6 59.1379 1126.22 64.2726 1183.81C65.5383 1197.77 66.2838 1210.6 66.8721 1222.78C68.4772 1256 71.9725 1274.64 66.7014 1300.4C60.9658 1328.43 50.9613 1337.12 45.7642 1360.15C40.4951 1383.34 47.7858 1389.64 45.8479 1414.69C43.6073 1443.64 25.3993 1468.99 24.7207 1502.09C23.5078 1561.25 59.4789 1590.49 59.7632 1639.05C60.0491 1687.88 35.8275 1736.92 45.5394 1801.24C55.4228 1866.69 87.0585 1896 87.0585 1896" stroke="#DBDBDB" stroke-miterlimit="10"/>
<path d="M-4.85784 -3.25076e-06C2.91417 9.40664 9.50511 21.897 14.4556 36.6004C20.5915 56.3592 19.23 74.1858 28.4941 106.871C37.324 138.024 47.8616 154.548 47.932 191.035C48.1755 274.428 -6.09759 282.027 -15.3972 376.542C-16.5257 387.634 -16.774 398.981 -16.134 410.211C-11.8361 485.505 36.3569 512.86 43.9314 562.327C45.3725 571.312 46.4865 580.472 47.2657 589.743C49.4686 618.47 45.6172 633.216 42.8054 675.415C39.1672 730.016 63.9546 759.87 54.4506 820.974C44.9999 881.647 -7.82097 874.526 -3.98149 939.918C-1.23525 986.691 23.2324 1019.53 30.8696 1056.92C38.6995 1095.26 41.6747 1125.06 46.3952 1176.05C47.5792 1188.63 47.5587 1200.51 48.217 1211.99C49.9191 1241.66 49.9647 1260.04 44.5306 1283.31C38.8624 1307.58 29.9169 1317.2 24.5644 1337.49C19.1318 1357.95 23.2227 1365.79 20.5249 1387.74C17.2814 1414.13 2.38517 1438.01 1.88595 1468.93C0.851415 1533.01 40.3382 1563.89 40.0367 1616.42C39.8164 1669.16 12.0891 1722.3 22.0394 1792.81C32.1086 1864.16 66.3144 1896 66.3144 1896" stroke="#DBDBDB" stroke-miterlimit="10"/>
<path d="M-28.2424 -3.37127e-06C-20.862 8.14325 -14.3108 18.7042 -8.89663 31.1866C-1.89713 47.9597 0.518758 65.1391 9.20434 93.6788C17.3839 120.556 26.0217 138.96 26.0993 171.932C26.3671 257.375 -31.3575 266.398 -40.3605 367.439C-41.4614 379.182 -41.6004 391.174 -40.7727 402.996C-35.2367 481.464 15.5156 511.92 23.4327 562.137C24.986 571.57 26.2005 581.19 27.068 590.93C29.5428 621.128 25.4338 636.013 22.682 681.105C19.0462 738.988 47.0147 769.648 36.8807 834.263C26.7821 898.591 -30.7655 887.863 -27.6581 956.541C-25.7602 998.488 -4.5205 1028.84 5.79563 1061.85C16.4351 1095.89 24.2095 1123.91 28.5158 1168.29C29.5673 1179.14 29.9179 1190.19 29.5598 1201.2C28.78 1227.67 27.9851 1245.47 22.3578 1266.21C16.7877 1286.75 8.87045 1297.29 3.36258 1314.83C-2.23345 1332.56 -1.38615 1341.91 -4.80005 1360.79C-9.10149 1384.58 -20.6235 1407.04 -20.9507 1435.78C-21.7362 1504.76 21.1423 1537.29 20.3083 1593.8C19.5284 1650.45 -11.6472 1707.68 -1.46265 1784.38C8.7959 1861.64 45.5683 1896 45.5683 1896" stroke="#DBDBDB" stroke-miterlimit="10"/>
<path d="M-51.627 -3.49178e-06C-44.5802 6.9011 -38.0616 15.5709 -32.2489 25.7728C-24.4035 39.6499 -18.1994 56.1012 -10.0855 80.4868C-2.56256 103.096 4.1819 123.372 4.26652 152.828C4.55869 240.322 -56.5119 250.806 -65.3237 358.337C-66.392 370.732 -66.4216 383.368 -65.4114 395.781C-58.6374 477.422 -5.32068 510.975 2.93392 561.948C4.60263 571.827 5.9177 581.906 6.87022 592.117C9.63876 623.778 5.3077 638.823 2.55857 686.795C-1.0007 747.978 30.0747 779.426 19.3106 847.552C8.56429 915.535 -53.4621 901.201 -51.3348 973.165C-50.2365 1010.32 -32.2644 1038.1 -19.2783 1066.77C-5.81959 1096.48 6.74425 1122.75 10.6365 1160.53C11.6498 1170.39 11.7398 1180.5 10.9026 1190.42C9.56307 1211.19 5.91072 1231.2 0.185046 1249.12C-5.25157 1265.98 -12.176 1277.38 -17.8393 1292.17C-22.6632 1305.25 -26.7791 1319.21 -30.1251 1333.84C-35.5525 1354.94 -43.6263 1376.06 -43.7875 1402.62C-44.2358 1476.52 1.9463 1510.69 0.579812 1571.18C-0.759633 1631.74 -35.3154 1693.03 -24.9647 1775.95C-14.449 1859.09 24.8222 1896 24.8222 1896" stroke="#DBDBDB" stroke-miterlimit="10"/>
<path d="M-75.0115 -3.61229e-06C-75.0115 -3.61229e-06 -17.8826 44.1811 -17.5661 133.725C-17.2496 223.27 -81.6662 235.214 -90.2869 349.234C-98.9075 463.254 -27.3755 502.659 -17.5649 561.758C-7.75456 620.856 -14.0823 628.002 -17.5649 692.485C-21.0477 756.967 13.1347 789.204 1.74054 860.841C-9.65358 932.479 -75.8028 914.569 -75.0115 989.788C-74.2203 1065.01 3.63955 1100.83 -7.75457 1179.63C-19.1487 1258.43 -66.6242 1290.66 -66.6242 1369.47C-66.6242 1448.27 -17.2497 1484.09 -19.1487 1548.56C-21.0477 1613.03 -59.1112 1678.45 -48.4668 1767.52C-37.8224 1856.6 4.07604 1896 4.07604 1896" stroke="#DBDBDB" stroke-miterlimit="10"/>
</g>
<defs>
<clipPath id="clip0_2675_2626">
<rect width="195" height="1896" fill="white"/>
</clipPath>
</defs>
</svg>
